<mxfile>
    <diagram id="8QbkyTl2bkq8l8BfTMAp" name="Page-1">
        <mxGraphModel dx="1054" dy="605" grid="1" gridSize="10" guides="1" tooltips="1" connect="1" arrows="1" fold="1" page="1" pageScale="1" pageWidth="1100" pageHeight="850" math="0" shadow="0">
            <root>
                <mxCell id="0"/>
                <mxCell id="1" parent="0"/>
                <mxCell id="9" value="" style="shape=folder;fontStyle=1;spacingTop=10;tabWidth=40;tabHeight=14;tabPosition=left;html=1;" vertex="1" parent="1">
                    <mxGeometry x="40" y="86" width="960" height="320" as="geometry"/>
                </mxCell>
                <mxCell id="3" value="" style="shape=folder;fontStyle=1;spacingTop=10;tabWidth=40;tabHeight=14;tabPosition=left;html=1;flipH=0;flipV=0;" vertex="1" parent="1">
                    <mxGeometry x="90" y="156" width="320" height="210" as="geometry"/>
                </mxCell>
                <mxCell id="2" value="&lt;p style=&quot;margin: 0px ; margin-top: 4px ; text-align: center&quot;&gt;&lt;font style=&quot;font-size: 18px&quot;&gt;Movie&lt;/font&gt;&lt;/p&gt;&lt;hr size=&quot;1&quot;&gt;&lt;p style=&quot;margin: 0px ; margin-left: 4px&quot;&gt;- name: str&lt;/p&gt;&lt;hr size=&quot;1&quot;&gt;&lt;p style=&quot;margin: 0px ; margin-left: 4px&quot;&gt;+ __init__():&amp;nbsp;&lt;br&gt;+ __str__():&amp;nbsp;&lt;br&gt;&lt;/p&gt;" style="verticalAlign=top;align=left;overflow=fill;fontSize=12;fontFamily=Helvetica;html=1;" vertex="1" parent="1">
                    <mxGeometry x="170" y="216" width="160" height="94" as="geometry"/>
                </mxCell>
                <mxCell id="4" value="" style="shape=folder;fontStyle=1;spacingTop=10;tabWidth=40;tabHeight=14;tabPosition=left;html=1;flipH=0;flipV=0;" vertex="1" parent="1">
                    <mxGeometry x="630" y="154" width="320" height="210" as="geometry"/>
                </mxCell>
                <mxCell id="5" value="&lt;p style=&quot;margin: 0px ; margin-top: 4px ; text-align: center&quot;&gt;&lt;font style=&quot;font-size: 18px&quot;&gt;Catalog&lt;/font&gt;&lt;/p&gt;&lt;hr size=&quot;1&quot;&gt;&lt;p style=&quot;margin: 0px ; margin-left: 4px&quot;&gt;+ path&amp;nbsp; &amp;nbsp;&amp;lt;static&amp;gt;&amp;nbsp;&amp;nbsp;&lt;/p&gt;&lt;hr size=&quot;1&quot;&gt;&lt;p style=&quot;margin: 0px ; margin-left: 4px&quot;&gt;+ __init__():&amp;nbsp;&lt;br&gt;+ __str__():&amp;nbsp;&lt;br&gt;&lt;/p&gt;&lt;p style=&quot;margin: 0px ; margin-left: 4px&quot;&gt;+ add( movie: Movie ):&amp;nbsp; &amp;nbsp;&amp;lt;static&amp;gt;&lt;br&gt;+ list():&amp;nbsp; &amp;nbsp;&amp;lt;static&amp;gt;&lt;/p&gt;&amp;nbsp;+ delete():&amp;nbsp; &amp;nbsp;&amp;lt;static&amp;gt;&lt;p style=&quot;margin: 0px ; margin-left: 4px&quot;&gt;&amp;nbsp;&lt;br&gt;&lt;/p&gt;" style="verticalAlign=top;align=left;overflow=fill;fontSize=12;fontFamily=Helvetica;html=1;" vertex="1" parent="1">
                    <mxGeometry x="710" y="193" width="200" height="136" as="geometry"/>
                </mxCell>
                <mxCell id="6" value="" style="endArrow=diamondThin;endFill=0;endSize=24;html=1;exitX=1;exitY=0.5;exitDx=0;exitDy=0;" edge="1" parent="1" source="2" target="5">
                    <mxGeometry width="160" relative="1" as="geometry">
                        <mxPoint x="410" y="346" as="sourcePoint"/>
                        <mxPoint x="570" y="346" as="targetPoint"/>
                    </mxGeometry>
                </mxCell>
                <mxCell id="7" value="Domain" style="text;align=center;fontStyle=1;verticalAlign=middle;spacingLeft=3;spacingRight=3;strokeColor=none;rotatable=0;points=[[0,0.5],[1,0.5]];portConstraint=eastwest;fontColor=#FFFF00;" vertex="1" parent="1">
                    <mxGeometry x="70" y="130" width="80" height="26" as="geometry"/>
                </mxCell>
                <mxCell id="8" value="Service" style="text;align=center;fontStyle=1;verticalAlign=middle;spacingLeft=3;spacingRight=3;strokeColor=none;rotatable=0;points=[[0,0.5],[1,0.5]];portConstraint=eastwest;fontColor=#FFFF00;" vertex="1" parent="1">
                    <mxGeometry x="610" y="128" width="80" height="26" as="geometry"/>
                </mxCell>
                <mxCell id="10" value="Movie Catalog" style="text;align=center;fontStyle=1;verticalAlign=middle;spacingLeft=3;spacingRight=3;strokeColor=none;rotatable=0;points=[[0,0.5],[1,0.5]];portConstraint=eastwest;fontSize=16;fontColor=#FFFF00;" vertex="1" parent="1">
                    <mxGeometry x="50" y="60" width="80" height="26" as="geometry"/>
                </mxCell>
                <mxCell id="11" value="agreggate" style="text;align=center;fontStyle=1;verticalAlign=middle;spacingLeft=3;spacingRight=3;strokeColor=none;rotatable=0;points=[[0,0.5],[1,0.5]];portConstraint=eastwest;fontColor=#FFFF33;" vertex="1" parent="1">
                    <mxGeometry x="480" y="233" width="80" height="26" as="geometry"/>
                </mxCell>
            </root>
        </mxGraphModel>
    </diagram>
</mxfile>